<svg xmlns="http://www.w3.org/2000/svg" fill="none" viewBox="0 0 734 352">
  <mask id="a" width="734" height="352" x="0" y="0" maskUnits="userSpaceOnUse" style="mask-type:alpha">
    <path fill="#D9D9D9" d="M0 0h734v352H0z"/>
  </mask>
  <g mask="url(#a)">
    <path fill="#171717" d="M56 116.619a16 16 0 0 1 16 0l191.846 110.762c4.951 2.858 8 8.14 8 13.857v221.524a15.999 15.999 0 0 1-8 13.857L72 587.381a16 16 0 0 1-16 0l-191.846-110.762c-4.951-2.858-8-8.14-8-13.857V241.238a15.999 15.999 0 0 1 8-13.857L56 116.619Z"/>
    <path fill="#171717" d="M398 92.31a8 8 0 0 1 8 0l69.942 40.381a8 8 0 0 1 4 6.928v80.762a8 8 0 0 1-4 6.928L406 267.691a8 8 0 0 1-8 0l-69.942-40.382a8 8 0 0 1-4-6.928v-80.762a8 8 0 0 1 4-6.928L398 92.309Z"/>
    <path stroke="#fff" stroke-width="2" d="M300.5 157.175a7.002 7.002 0 0 1 7 0l69.942 40.382a6.999 6.999 0 0 1 3.5 6.062v80.762a6.999 6.999 0 0 1-3.5 6.062L307.5 330.825a7.002 7.002 0 0 1-7 0l-69.942-40.382a6.999 6.999 0 0 1-3.5-6.062v-80.762a6.999 6.999 0 0 1 3.5-6.062l69.942-40.382Z"/>
    <path fill="#171717" d="M533 220.309a8 8 0 0 1 8 0l30.971 17.882a8 8 0 0 1 4 6.928v35.762a8 8 0 0 1-4 6.928L541 305.691a8 8 0 0 1-8 0l-30.971-17.882a8 8 0 0 1-4-6.928v-35.762a8 8 0 0 1 4-6.928L533 220.309Z"/>
    <path fill="#171717" d="M666 2.31a8 8 0 0 1 8 0l30.971 17.88a8 8 0 0 1 4 6.929V62.88a8 8 0 0 1-4 6.928L674 87.691a8 8 0 0 1-8 0l-30.971-17.882a8 8 0 0 1-4-6.928V27.12a8 8 0 0 1 4-6.928L666 2.309Z"/>
    <path fill="#fff" d="M668 132.155a3.998 3.998 0 0 1 4 0l9.856 5.69a4 4 0 0 1 2 3.464v11.382a4 4 0 0 1-2 3.464l-9.856 5.69a3.998 3.998 0 0 1-4 0l-9.856-5.69a4 4 0 0 1-2-3.464v-11.382a4 4 0 0 1 2-3.464l9.856-5.69Z"/>
    <path stroke="#DEDEDE" d="M442.644 232.289 456 224.577l13.356 7.712v15.422L456 255.423l-13.356-7.712v-15.422Z"/>
    <path stroke="#DEDEDE" stroke-width="2" d="M220.5 96.02a3 3 0 0 1 3 0l23.713 13.691a3.001 3.001 0 0 1 1.5 2.598v27.382a3.001 3.001 0 0 1-1.5 2.598l-23.713 13.69a3 3 0 0 1-3 0l-23.713-13.69a3.001 3.001 0 0 1-1.5-2.598v-27.382c0-1.071.572-2.062 1.5-2.598l23.713-13.69Z"/>
    <path fill="#E00" d="m565 124 6.928 4v8L565 140l-6.928-4v-8l6.928-4Z"/>
    <path fill="#fff" d="m304 268 6.928 4v8L304 284l-6.928-4v-8l6.928-4Z"/>
    <path fill="#E00" d="m0 84 6.928 4v8L0 100l-6.928-4v-8L0 84Z"/>
    <path stroke="#fff" d="m121.572 184.289 6.428-3.712 6.428 3.712v7.422L128 195.423l-6.428-3.712v-7.422Z"/>
  </g>
</svg>