<svg width="24" height="25" viewBox="0 0 24 25" fill="none" xmlns="http://www.w3.org/2000/svg">
<path d="M23.6005 10.0907L23.5668 10.0044L20.3002 1.47933C20.2337 1.31224 20.116 1.1705 19.964 1.07444C19.8119 0.980015 19.6345 0.934537 19.4557 0.944146C19.2769 0.953756 19.1054 1.01799 18.9643 1.12818C18.8248 1.24153 18.7235 1.39512 18.6744 1.56805L16.4688 8.31617H7.53749L5.33186 1.56805C5.28402 1.39418 5.18257 1.23981 5.04194 1.12693C4.90083 1.01674 4.7293 0.952506 4.55053 0.942896C4.37175 0.933287 4.19433 0.978766 4.04222 1.07319C3.89054 1.16964 3.77297 1.31125 3.70606 1.47808L0.433225 9.99945L0.400734 10.0857C-0.069507 11.3143 -0.127551 12.6626 0.235354 13.9271C0.598259 15.1916 1.36244 16.3039 2.41267 17.0962L2.42392 17.105L2.45391 17.1262L7.43002 20.8527L9.89184 22.7159L11.3914 23.8481C11.5668 23.9813 11.781 24.0534 12.0012 24.0534C12.2215 24.0534 12.4357 23.9813 12.6111 23.8481L14.1107 22.7159L16.5725 20.8527L21.5786 17.1037L21.5911 17.0937C22.639 16.3013 23.4014 15.1901 23.7637 13.9273C24.1261 12.6645 24.0688 11.3182 23.6005 10.0907Z" fill="#E24329"/>
<path d="M23.6005 10.0907L23.5668 10.0044C21.9751 10.3312 20.4752 11.0054 19.1743 11.9789L12 17.4036C14.4431 19.2519 16.57 20.8577 16.57 20.8577L21.5761 17.1087L21.5886 17.0987C22.638 16.3063 23.4015 15.1944 23.7644 13.9305C24.1272 12.6666 24.0697 11.3191 23.6005 10.0907Z" fill="#FC6D26"/>
<path d="M7.42969 20.8578L9.8915 22.721L11.3911 23.8532C11.5665 23.9864 11.7807 24.0585 12.0009 24.0585C12.2212 24.0585 12.4353 23.9864 12.6107 23.8532L14.1103 22.721L16.5721 20.8578C16.5721 20.8578 14.4427 19.247 11.9997 17.4037C9.5566 19.247 7.42969 20.8578 7.42969 20.8578Z" fill="#FCA326"/>
<path d="M4.8245 11.9789C3.5246 11.0034 2.02503 10.3274 0.433225 9.9995L0.400734 10.0857C-0.0695071 11.3144 -0.127551 12.6626 0.235354 13.9272C0.598259 15.1917 1.36244 16.304 2.41267 17.0963L2.42392 17.105L2.45391 17.1263L7.43002 20.8527C7.43002 20.8527 9.55443 19.2469 12 17.3987L4.8245 11.9789Z" fill="#FC6D26"/>
</svg>
