<svg width="16" height="17" viewBox="0 0 16 17" fill="none" xmlns="http://www.w3.org/2000/svg">
<g clip-path="url(#clip0_176_207)">
<path d="M15.8008 13.026L9.48383 1.38C9.32803 1.09107 9.09045 0.854523 8.80083 0.700001C8.40735 0.489432 7.94665 0.442741 7.51893 0.570084C7.0912 0.697428 6.73106 0.988504 6.51683 1.38L0.20083 13.026C0.0627228 13.2823 -0.00633038 13.5701 0.00045607 13.8611C0.00724252 14.1522 0.0896351 14.4365 0.239538 14.686C0.38944 14.9356 0.601694 15.1419 0.855444 15.2846C1.10919 15.4273 1.39571 15.5015 1.68683 15.5H14.3148C14.5939 15.5 14.8686 15.4313 15.1148 15.3C15.3099 15.1965 15.4825 15.0553 15.6228 14.8847C15.763 14.7142 15.8681 14.5175 15.932 14.3061C15.9958 14.0947 16.0172 13.8727 15.9949 13.653C15.9726 13.4333 15.9059 13.2202 15.8008 13.026ZM8.00083 13.5C7.80305 13.5 7.60971 13.4414 7.44526 13.3315C7.28081 13.2216 7.15264 13.0654 7.07695 12.8827C7.00126 12.7 6.98146 12.4989 7.02004 12.3049C7.05863 12.1109 7.15387 11.9327 7.29372 11.7929C7.43358 11.653 7.61176 11.5578 7.80574 11.5192C7.99972 11.4806 8.20079 11.5004 8.38351 11.5761C8.56624 11.6518 8.72242 11.78 8.8323 11.9444C8.94218 12.1089 9.00083 12.3022 9.00083 12.5C9.00083 12.7652 8.89547 13.0196 8.70794 13.2071C8.5204 13.3946 8.26605 13.5 8.00083 13.5ZM9.00083 10C9.00083 10.1326 8.94815 10.2598 8.85438 10.3536C8.76062 10.4473 8.63344 10.5 8.50083 10.5H7.50083C7.36822 10.5 7.24104 10.4473 7.14728 10.3536C7.05351 10.2598 7.00083 10.1326 7.00083 10V6C7.00083 5.86739 7.05351 5.74022 7.14728 5.64645C7.24104 5.55268 7.36822 5.5 7.50083 5.5H8.50083C8.63344 5.5 8.76062 5.55268 8.85438 5.64645C8.94815 5.74022 9.00083 5.86739 9.00083 6V10Z" fill="white"/>
</g>
<defs>
<clipPath id="clip0_176_207">
<rect width="16" height="16" fill="white" transform="translate(0 0.5)"/>
</clipPath>
</defs>
</svg>
