<svg width="16" height="17" viewBox="0 0 16 17" fill="none" xmlns="http://www.w3.org/2000/svg">
<g clip-path="url(#clip0_176_171)">
<path d="M14.9994 4.5H9.99943C9.73421 4.5 9.47986 4.60536 9.29232 4.79289C9.10479 4.98043 8.99943 5.23478 8.99943 5.5C8.99943 5.76522 9.10479 6.01957 9.29232 6.20711C9.47986 6.39464 9.73421 6.5 9.99943 6.5H12.5854L8.99943 10.086L5.70643 6.793C5.5189 6.60553 5.2646 6.50021 4.99943 6.50021C4.73427 6.50021 4.47996 6.60553 4.29243 6.793L0.292431 10.793C0.110273 10.9816 0.00947813 11.2342 0.0117566 11.4964C0.014035 11.7586 0.119204 12.0094 0.304612 12.1948C0.49002 12.3802 0.740833 12.4854 1.00303 12.4877C1.26523 12.49 1.51783 12.3892 1.70643 12.207L4.99943 8.914L8.29243 12.207C8.47996 12.3945 8.73427 12.4998 8.99943 12.4998C9.2646 12.4998 9.5189 12.3945 9.70643 12.207L13.9994 7.914V10.5C13.9994 10.7652 14.1048 11.0196 14.2923 11.2071C14.4799 11.3946 14.7342 11.5 14.9994 11.5C15.2646 11.5 15.519 11.3946 15.7065 11.2071C15.8941 11.0196 15.9994 10.7652 15.9994 10.5V5.5C15.9994 5.23478 15.8941 4.98043 15.7065 4.79289C15.519 4.60536 15.2646 4.5 14.9994 4.5Z" fill="white"/>
</g>
<defs>
<clipPath id="clip0_176_171">
<rect width="16" height="16" fill="white" transform="translate(0 0.5)"/>
</clipPath>
</defs>
</svg>
