<svg width="24" height="25" viewBox="0 0 24 25" fill="none" xmlns="http://www.w3.org/2000/svg">
<g clip-path="url(#clip0_221_16084)">
<path fill-rule="evenodd" clip-rule="evenodd" d="M12 0.799988C5.4 0.799988 0 6.19999 0 12.8C0 18.05 3.45 22.55 8.25 24.2C8.85 24.35 9 23.9 9 23.6C9 23.3 9 22.55 9 21.5C5.7 22.25 4.95 20 4.95 20C4.35 18.65 3.6 18.2 3.6 18.2C2.55 17.45 3.75 17.45 3.75 17.45C4.95 17.6 5.55 18.65 5.55 18.65C6.6 20.6 8.4 20 9 19.7C9.15 18.95 9.45 18.35 9.75 18.05C7.05 17.75 4.35 16.7 4.35 12.05C4.35 10.7 4.8 9.64999 5.55 8.89999C5.4 8.59999 4.95 7.39999 5.7 5.74999C5.7 5.74999 6.75 5.44999 9 6.94999C9.9 6.64999 10.95 6.49999 12 6.49999C13.05 6.49999 14.1 6.64999 15 6.94999C17.25 5.44999 18.3 5.74999 18.3 5.74999C18.9 7.39999 18.6 8.59999 18.45 8.89999C19.2 9.79999 19.65 10.85 19.65 12.05C19.65 16.7 16.8 17.6 14.1 17.9C14.55 18.5 15 19.25 15 20.3C15 21.95 15 23.15 15 23.6C15 23.9 15.15 24.35 15.9 24.2C20.7 22.55 24.15 18.05 24.15 12.8C24 6.19999 18.6 0.799988 12 0.799988Z" fill="white"/>
</g>
<defs>
<clipPath id="clip0_221_16084">
<rect width="24" height="24" fill="white" transform="translate(0 0.5)"/>
</clipPath>
</defs>
</svg>
