<svg width="16" height="17" viewBox="0 0 16 17" fill="none" xmlns="http://www.w3.org/2000/svg">
<g clip-path="url(#clip0_223_16470)">
<path d="M16 4.5V3.5H14V4.5C14 5.1 13.6 5.5 13 5.5H12C11.7 5.1 11.4 4.8 11 4.5V3.5C11 1.8 9.7 0.5 8 0.5C6.3 0.5 5 1.8 5 3.5V4.5C4.6 4.8 4.3 5.1 4 5.5H3C2.4 5.5 2 5.1 2 4.5V3.5H0V4.5C0 6.2 1.3 7.5 3 7.5H3.1C3 7.8 3 8.2 3 8.5H0V10.5H3V11.5C1.3 11.5 0 12.8 0 14.5V15.5H2V14.5C2 13.9 2.4 13.5 3 13.5H3.4C4.2 15.3 6 16.5 8 16.5C10 16.5 11.8 15.3 12.6 13.5H13C13.6 13.5 14 13.9 14 14.5V15.5H16V14.5C16 12.8 14.7 11.5 13 11.5V10.5H16V8.5H13C13 8.2 13 7.8 12.9 7.5H13C14.7 7.5 16 6.2 16 4.5Z" fill="#263238"/>
</g>
<defs>
<clipPath id="clip0_223_16470">
<rect width="16" height="16" fill="white" transform="translate(0 0.5)"/>
</clipPath>
</defs>
</svg>
