<svg width="24" height="24" viewBox="0 0 24 24" fill="none" xmlns="http://www.w3.org/2000/svg">
<g clip-path="url(#clip0_204_14890)">
<path d="M24 11H21.949C21.479 6.283 17.717 2.521 13 2.051V0H11V2.051C6.283 2.521 2.521 6.283 2.051 11H0V13H2.051C2.522 17.717 6.283 21.479 11 21.949V24H13V21.949C17.717 21.478 21.479 17.717 21.949 13H24V11ZM13 19.931V18H11V19.931C7.388 19.477 4.523 16.612 4.069 13H6V11H4.069C4.523 7.388 7.388 4.523 11 4.069V6H13V4.069C16.612 4.522 19.477 7.388 19.931 11H18V13H19.931C19.477 16.612 16.612 19.477 13 19.931Z" fill="#212121"/>
<path d="M12 14C13.1046 14 14 13.1046 14 12C14 10.8954 13.1046 10 12 10C10.8954 10 10 10.8954 10 12C10 13.1046 10.8954 14 12 14Z" fill="#212121"/>
</g>
<defs>
<clipPath id="clip0_204_14890">
<rect width="24" height="24" fill="white"/>
</clipPath>
</defs>
</svg>
