<svg width="24" height="24" viewBox="0 0 24 24" fill="none" xmlns="http://www.w3.org/2000/svg">
<path d="M12 16V3" stroke="white" stroke-width="2" stroke-linecap="round" stroke-linejoin="round"/>
<path d="M17 3H21C21.5304 3 22.0391 3.21071 22.4142 3.58579C22.7893 3.96086 23 4.46957 23 5V19C23 19.5304 22.7893 20.0391 22.4142 20.4142C22.0391 20.7893 21.5304 21 21 21H3C2.46957 21 1.96086 20.7893 1.58579 20.4142C1.21071 20.0391 1 19.5304 1 19V5C1 4.46957 1.21071 3.96086 1.58579 3.58579C1.96086 3.21071 2.46957 3 3 3H7" stroke="white" stroke-width="2" stroke-linecap="round" stroke-linejoin="round"/>
<path d="M17 11L12 16L7 11" stroke="white" stroke-width="2" stroke-linecap="round" stroke-linejoin="round"/>
</svg>
