<svg xmlns="http://www.w3.org/2000/svg" fill="none" viewBox="0 0 313 32">
  <path fill="#fff" d="M51.438 32a.453.453 0 0 1-.452-.453V.453a.453.453 0 0 1 .905 0v31.094c0 .25-.203.453-.453.453Z"/>
  <path fill="#E00" d="M25.554 17.765c2.515 0 6.16-.522 6.16-3.514 0-.234-.006-.461-.062-.689l-1.5-6.512c-.346-1.431-.65-2.083-3.167-3.341-1.953-.998-6.205-2.647-7.463-2.647-1.171 0-1.517 1.518-2.906 1.518-1.345 0-2.343-1.127-3.6-1.127-1.216 0-1.997.825-2.603 2.515 0 0-1.693 4.772-1.91 5.467-.044.13-.044.275-.044.39 0 1.854 7.303 7.94 17.095 7.94Zm6.55-2.3c.347 1.648.347 1.82.347 2.038 0 2.82-3.168 4.381-7.332 4.381-9.415 0-17.658-5.51-17.658-9.155 0-.563.13-1.085.304-1.475C4.38 11.43 0 12.037 0 15.899c0 6.334 15.012 14.144 26.898 14.144 9.111 0 11.41-4.121 11.41-7.376.001-2.56-2.212-5.466-6.203-7.203Z"/>
  <path fill="#000" d="M32.105 15.464c.346 1.649.346 1.822.346 2.039 0 2.82-3.168 4.381-7.332 4.381-9.415 0-17.658-5.51-17.658-9.155 0-.563.13-1.085.304-1.475l.738-1.82c-.044.131-.044.276-.044.391 0 1.854 7.303 7.94 17.095 7.94 2.515 0 6.16-.522 6.16-3.514 0-.234-.006-.461-.062-.689l.453 1.902Z"/>
  <path fill="#fff" d="M63.714 21.187v-12.6h6.444c2.592 0 4.446 1.674 4.446 4.014 0 1.584-.936 2.898-2.358 3.546L75 21.187h-3.456l-2.376-4.59H66.81v4.59h-3.096Zm3.096-7.11h3.06c.954 0 1.602-.576 1.602-1.422s-.648-1.422-1.602-1.422h-3.06v2.844Z"/>
  <path fill="#fff" d="M80.257 21.367c-2.916 0-5.184-2.16-5.184-4.932 0-2.772 2.178-4.932 4.968-4.932s4.806 2.196 4.806 5.202v.72h-6.786c.378.9 1.242 1.512 2.34 1.512.792 0 1.458-.252 1.908-.72l1.926 1.71c-1.206 1.008-2.394 1.44-3.978 1.44Zm-2.25-5.976h3.978c-.306-.918-1.062-1.512-1.998-1.512-.972 0-1.692.558-1.98 1.512Z"/>
  <path fill="#fff" d="M90.726 21.313c-2.718 0-4.86-2.16-4.86-4.896 0-2.736 2.178-4.878 4.95-4.878.882 0 1.71.216 2.43.63V8.587l2.916-.45v13.05h-2.88v-.702c-.738.54-1.62.828-2.556.828Zm.504-2.484c.81 0 1.494-.252 2.016-.756v-3.33c-.504-.468-1.224-.738-2.016-.738-1.422 0-2.502 1.044-2.502 2.412 0 1.368 1.098 2.412 2.502 2.412Z"/>
  <path fill="#fff" d="M101.63 21.187v-12.6h3.096v4.842h5.184V8.587h3.096v12.6h-3.096v-4.932h-5.184v4.932h-3.096Z"/>
  <path fill="#fff" d="M117.817 21.349c-2.034 0-3.456-1.206-3.456-2.952 0-1.818 1.44-2.862 3.924-2.862.738 0 1.458.09 2.16.27v-.468c0-.954-.612-1.422-1.818-1.422-.756 0-1.638.234-2.88.756l-1.044-2.142c1.548-.702 2.988-1.044 4.446-1.044 2.646 0 4.176 1.314 4.176 3.6v6.102h-2.88v-.576c-.774.522-1.602.738-2.628.738Zm-.684-3.006c0 .594.558.954 1.494.954.702 0 1.314-.144 1.818-.45v-1.224a6.887 6.887 0 0 0-1.728-.216c-1.008 0-1.584.342-1.584.936Z"/>
  <path fill="#fff" d="M129.6 21.313c-2.286 0-3.456-1.026-3.456-3.024v-4.194h-1.926v-2.43h1.926V9.217l2.916-.63v3.078h2.664v2.43h-2.664v3.618c0 .846.324 1.152 1.26 1.152.468 0 .828-.054 1.314-.198v2.358c-.54.162-1.476.288-2.034.288Z"/>
  <path fill="#fff" d="M136.97 21.187v-12.6h4.158c3.834 0 6.624 2.646 6.624 6.3s-2.772 6.3-6.624 6.3h-4.158Zm1.386-1.26h2.844c2.916 0 5.148-2.178 5.148-5.04s-2.232-5.04-5.148-5.04h-2.844v10.08Z"/>
  <path fill="#fff" d="M153.903 21.349c-2.61 0-4.644-2.034-4.644-4.68 0-2.592 1.962-4.644 4.446-4.644 2.394 0 4.266 2.052 4.266 4.644v.414h-7.398c.198 1.782 1.602 3.096 3.384 3.096.936 0 1.872-.306 2.484-.828l.828.882c-1.008.756-2.07 1.116-3.366 1.116Zm-3.294-5.328h6.03c-.234-1.602-1.476-2.826-2.97-2.826-1.566 0-2.808 1.17-3.06 2.826Z"/>
  <path fill="#fff" d="m162.432 21.187-3.907-9.018h1.476l3.078 7.29 3.079-7.29h1.421l-3.888 9.018h-1.259Z"/>
  <path fill="#fff" d="M172.764 21.349c-2.61 0-4.644-2.034-4.644-4.68 0-2.592 1.962-4.644 4.446-4.644 2.394 0 4.266 2.052 4.266 4.644v.414h-7.398c.198 1.782 1.602 3.096 3.384 3.096.936 0 1.872-.306 2.484-.828l.828.882c-1.008.756-2.07 1.116-3.366 1.116Zm-3.294-5.328h6.03c-.234-1.602-1.476-2.826-2.97-2.826-1.566 0-2.808 1.17-3.06 2.826Z"/>
  <path fill="#fff" d="M178.695 21.187v-12.6l1.332-.306v12.906h-1.332Z"/>
  <path fill="#fff" d="M186.492 21.367c-2.574 0-4.608-2.052-4.608-4.68 0-2.628 2.034-4.68 4.608-4.68s4.608 2.052 4.608 4.68c0 2.628-2.034 4.68-4.608 4.68Zm0-1.188c1.836 0 3.294-1.53 3.294-3.492s-1.458-3.492-3.294-3.492-3.294 1.53-3.294 3.492 1.458 3.492 3.294 3.492Z"/>
  <path fill="#fff" d="M192.95 24.859v-12.69h1.314v.972c.774-.738 1.782-1.116 2.916-1.116 2.556 0 4.536 2.034 4.536 4.644 0 2.628-1.98 4.662-4.554 4.662a4.527 4.527 0 0 1-2.88-1.044v4.572h-1.332Zm4.104-4.698c1.908 0 3.348-1.494 3.348-3.474 0-1.98-1.458-3.492-3.348-3.492-1.134 0-2.142.468-2.772 1.26v4.464c.63.774 1.656 1.242 2.772 1.242Z"/>
  <path fill="#fff" d="M207.798 21.349c-2.61 0-4.644-2.034-4.644-4.68 0-2.592 1.962-4.644 4.446-4.644 2.394 0 4.266 2.052 4.266 4.644v.414h-7.398c.198 1.782 1.602 3.096 3.384 3.096.936 0 1.872-.306 2.484-.828l.828.882c-1.008.756-2.07 1.116-3.366 1.116Zm-3.294-5.328h6.03c-.234-1.602-1.476-2.826-2.97-2.826-1.566 0-2.808 1.17-3.06 2.826Z"/>
  <path fill="#fff" d="M213.728 21.187v-9.018h1.332v1.278c.54-.936 1.422-1.476 2.52-1.476.342 0 .576.036.846.126v1.224a2.927 2.927 0 0 0-.936-.162c-1.116 0-1.962.648-2.43 1.854v6.174h-1.332Z"/>
  <path fill="#fff" d="M224.07 21.187v-12.6h1.386v12.6h-1.386Z"/>
  <path fill="#fff" d="M227.984 21.187v-9.018h1.332v1.062c.702-.828 1.674-1.242 2.844-1.242 2.052 0 3.474 1.422 3.474 3.492v5.706h-1.314V15.75c0-1.602-.972-2.592-2.52-2.592-1.08 0-1.944.504-2.484 1.386v6.642h-1.332Z"/>
  <path fill="#fff" d="M241.145 21.367c-1.566 0-2.43-.756-2.43-2.178v-5.886h-1.944v-1.134h1.944V9.883l1.314-.342v2.628h2.718v1.134h-2.718v5.544c0 .972.396 1.35 1.386 1.35.504 0 .864-.054 1.314-.234v1.17c-.468.162-1.062.234-1.584.234Z"/>
  <path fill="#fff" d="M248.227 21.349c-2.61 0-4.644-2.034-4.644-4.68 0-2.592 1.962-4.644 4.446-4.644 2.394 0 4.266 2.052 4.266 4.644v.414h-7.398c.198 1.782 1.602 3.096 3.384 3.096.936 0 1.872-.306 2.484-.828l.828.882c-1.008.756-2.07 1.116-3.366 1.116Zm-3.294-5.328h6.03c-.234-1.602-1.476-2.826-2.97-2.826-1.566 0-2.808 1.17-3.06 2.826Z"/>
  <path fill="#fff" d="M254.157 21.187v-12.6l1.332-.306v12.906h-1.332Z"/>
  <path fill="#fff" d="M257.761 21.187v-12.6l1.332-.306v12.906h-1.332Z"/>
  <path fill="#fff" d="M262.03 10.44a.915.915 0 0 1-.9-.9c0-.503.414-.9.9-.9.504 0 .9.397.9.9 0 .487-.396.9-.9.9Zm-.666 10.747v-9.018h1.332v9.018h-1.332Z"/>
  <path fill="#fff" d="M269.36 25.039c-1.26 0-2.52-.342-3.528-.936l.576-1.044c1.08.576 1.962.828 2.898.828 1.71 0 2.61-.828 2.61-2.412v-1.26a4.38 4.38 0 0 1-2.862 1.044c-2.502 0-4.5-2.016-4.5-4.626 0-2.592 1.98-4.626 4.536-4.626 1.026 0 2.016.378 2.844 1.062v-.9h1.314v9.288c0 2.304-1.386 3.582-3.888 3.582Zm-.198-4.95c1.152 0 2.142-.45 2.754-1.242v-4.428c-.612-.774-1.62-1.224-2.754-1.224-1.872 0-3.294 1.494-3.294 3.438 0 1.944 1.44 3.456 3.294 3.456Z"/>
  <path fill="#fff" d="M279.745 21.349c-2.61 0-4.644-2.034-4.644-4.68 0-2.592 1.962-4.644 4.446-4.644 2.394 0 4.266 2.052 4.266 4.644v.414h-7.398c.198 1.782 1.602 3.096 3.384 3.096.936 0 1.872-.306 2.484-.828l.828.882c-1.008.756-2.07 1.116-3.366 1.116Zm-3.294-5.328h6.03c-.234-1.602-1.476-2.826-2.97-2.826-1.566 0-2.808 1.17-3.06 2.826Z"/>
  <path fill="#fff" d="M285.675 21.187v-9.018h1.332v1.062c.702-.828 1.674-1.242 2.844-1.242 2.052 0 3.474 1.422 3.474 3.492v5.706h-1.314V15.75c0-1.602-.972-2.592-2.52-2.592-1.08 0-1.944.504-2.484 1.386v6.642h-1.332Z"/>
  <path fill="#fff" d="M299.73 21.349c-2.574 0-4.59-2.052-4.59-4.68 0-2.61 2.016-4.68 4.59-4.68 1.314 0 2.592.522 3.528 1.422l-.846.972c-.72-.756-1.692-1.17-2.664-1.17-1.854 0-3.294 1.53-3.294 3.456 0 1.962 1.458 3.474 3.312 3.474.972 0 1.854-.378 2.628-1.134l.828.9c-.954.918-2.196 1.44-3.492 1.44Z"/>
  <path fill="#fff" d="M308.749 21.349c-2.61 0-4.644-2.034-4.644-4.68 0-2.592 1.962-4.644 4.446-4.644 2.394 0 4.266 2.052 4.266 4.644v.414h-7.398c.198 1.782 1.602 3.096 3.384 3.096.936 0 1.872-.306 2.484-.828l.828.882c-1.008.756-2.07 1.116-3.366 1.116Zm-3.294-5.328h6.03c-.234-1.602-1.476-2.826-2.97-2.826-1.566 0-2.808 1.17-3.06 2.826Z"/>
</svg>